REM DIRINDEX 1\2,1\3,1\4,1\5
REM DIRNAME cjc004,folder01,folder02,folder03,folder04
TITLE ""
FILE "1Q_t_1187-1196.mp3" MP3
  TRACK 01 AUDIO
    TITLE "3:cjc004_4466"
    INDEX 01 00:00:00
  TRACK 02 AUDIO
    TITLE "0:"
    INDEX 01 00:01:19
  TRACK 03 AUDIO
    TITLE "4:cjc004_4467"
    INDEX 01 00:01:46
  TRACK 04 AUDIO
    TITLE "0:"
    INDEX 01 00:03:25
  TRACK 05 AUDIO
    TITLE "5:cjc004_4468"
    INDEX 01 00:03:55
  TRACK 06 AUDIO
    TITLE "0:"
    INDEX 01 00:10:16
  TRACK 07 AUDIO
    TITLE "3:cjc004_4469"
    INDEX 01 00:10:72
  TRACK 08 AUDIO
    TITLE "0:"
    INDEX 01 00:12:26
  TRACK 09 AUDIO
    TITLE "4:cjc004_4470"
    INDEX 01 00:12:52
  TRACK 10 AUDIO
    TITLE "0:"
    INDEX 01 00:14:04
  TRACK 11 AUDIO
    TITLE "5:cjc004_4471"
    INDEX 01 00:14:31
  TRACK 12 AUDIO
    TITLE "0:"
    INDEX 01 00:18:31
  TRACK 13 AUDIO
    TITLE "3:cjc004_4472"
    INDEX 01 00:19:09
  TRACK 14 AUDIO
    TITLE "0:"
    INDEX 01 00:20:16
  TRACK 15 AUDIO
    TITLE "4:cjc004_4473"
    INDEX 01 00:20:45
  TRACK 16 AUDIO
    TITLE "0:"
    INDEX 01 00:22:19
  TRACK 17 AUDIO
    TITLE "5:cjc004_4474"
    INDEX 01 00:22:52
  TRACK 18 AUDIO
    TITLE "0:"
    INDEX 01 00:28:64
  TRACK 19 AUDIO
    TITLE "3:cjc004_4475"
    INDEX 01 00:29:40
  TRACK 20 AUDIO
    TITLE "0:"
    INDEX 01 00:30:65
  TRACK 21 AUDIO
    TITLE "4:cjc004_4476"
    INDEX 01 00:31:18
  TRACK 22 AUDIO
    TITLE "0:"
    INDEX 01 00:32:31
  TRACK 23 AUDIO
    TITLE "5:cjc004_4477"
    INDEX 01 00:32:60
  TRACK 24 AUDIO
    TITLE "0:"
    INDEX 01 00:37:20
  TRACK 25 AUDIO
    TITLE "3:cjc004_4478"
    INDEX 01 00:37:73
  TRACK 26 AUDIO
    TITLE "0:"
    INDEX 01 00:39:37
  TRACK 27 AUDIO
    TITLE "4:cjc004_4479"
    INDEX 01 00:39:62
  TRACK 28 AUDIO
    TITLE "0:"
    INDEX 01 00:41:49
  TRACK 29 AUDIO
    TITLE "5:cjc004_4480"
    INDEX 01 00:42:02
  TRACK 30 AUDIO
    TITLE "0:"
    INDEX 01 00:46:64
  TRACK 31 AUDIO
    TITLE "3:cjc004_4481"
    INDEX 01 00:47:40
  TRACK 32 AUDIO
    TITLE "0:"
    INDEX 01 00:49:04
  TRACK 33 AUDIO
    TITLE "4:cjc004_4482"
    INDEX 01 00:49:31
  TRACK 34 AUDIO
    TITLE "0:"
    INDEX 01 00:50:68
  TRACK 35 AUDIO
    TITLE "5:cjc004_4483"
    INDEX 01 00:51:16
  TRACK 36 AUDIO
    TITLE "0:"
    INDEX 01 00:57:35
  TRACK 37 AUDIO
    TITLE "3:cjc004_4484"
    INDEX 01 00:58:11
  TRACK 38 AUDIO
    TITLE "0:"
    INDEX 01 00:59:28
  TRACK 39 AUDIO
    TITLE "4:cjc004_4485"
    INDEX 01 00:59:55
  TRACK 40 AUDIO
    TITLE "0:"
    INDEX 01 01:00:68
  TRACK 41 AUDIO
    TITLE "5:cjc004_4486"
    INDEX 01 01:01:17
  TRACK 42 AUDIO
    TITLE "0:"
    INDEX 01 01:07:23
  TRACK 43 AUDIO
    TITLE "3:cjc004_4487"
    INDEX 01 01:08:05
  TRACK 44 AUDIO
    TITLE "0:"
    INDEX 01 01:09:40
  TRACK 45 AUDIO
    TITLE "4:cjc004_4488"
    INDEX 01 01:09:65
  TRACK 46 AUDIO
    TITLE "0:"
    INDEX 01 01:11:23
  TRACK 47 AUDIO
    TITLE "5:cjc004_4489"
    INDEX 01 01:11:45
  TRACK 48 AUDIO
    TITLE "0:"
    INDEX 01 01:16:46
  TRACK 49 AUDIO
    TITLE "3:cjc004_4490"
    INDEX 01 01:17:24
  TRACK 50 AUDIO
    TITLE "0:"
    INDEX 01 01:18:35
  TRACK 51 AUDIO
    TITLE "4:cjc004_4491"
    INDEX 01 01:18:62
  TRACK 52 AUDIO
    TITLE "0:"
    INDEX 01 01:19:64
  TRACK 53 AUDIO
    TITLE "5:cjc004_4492"
    INDEX 01 01:20:12
  TRACK 54 AUDIO
    TITLE "0:"
    INDEX 01 01:24:34
  TRACK 55 AUDIO
    TITLE "3:cjc004_4493"
    INDEX 01 01:25:13
  TRACK 56 AUDIO
    TITLE "0:"
    INDEX 01 01:26:40
  TRACK 57 AUDIO
    TITLE "4:cjc004_4494"
    INDEX 01 01:26:70
  TRACK 58 AUDIO
    TITLE "0:"
    INDEX 01 01:28:49
  TRACK 59 AUDIO
    TITLE "5:cjc004_4495"
    INDEX 01 01:28:74
  TRACK 60 AUDIO
    TITLE "0:"
    INDEX 01 01:34:73
